<?xml version="1.0" encoding="utf-8"?>
<!-- Generator: Adobe Illustrator 16.0.0, SVG Export Plug-In . SVG Version: 6.00 Build 0)  -->
<!DOCTYPE svg PUBLIC "-//W3C//DTD SVG 1.1//EN" "http://www.w3.org/Graphics/SVG/1.1/DTD/svg11.dtd">
<svg version="1.1" id="katman_1" xmlns="http://www.w3.org/2000/svg" xmlns:xlink="http://www.w3.org/1999/xlink" x="0px" y="0px"
	 width="452.847px" height="83.914px" viewBox="76.992 379.945 452.847 83.914"
	 enable-background="new 76.992 379.945 452.847 83.914" xml:space="preserve">
<g>
	<g>
		<path fill="#FFFFFF" d="M477.074,422.114c-2.339-1.595-4.89-2.657-7.441-4.039c-1.594-0.851-3.295-1.701-4.677-2.87
			c-2.339-1.914-1.913-5.74,0.638-7.441c3.508-2.339,9.354-1.063,9.992,3.721c0,0.106,0.106,0.213,0.213,0.213h5.314
			c0.106,0,0.213-0.106,0.213-0.213c-0.319-3.295-1.595-6.06-3.934-7.866c-2.231-1.701-4.783-2.551-7.547-2.551
			c-14.031,0-15.308,14.882-7.76,19.559c0.851,0.531,8.291,4.252,10.949,5.953c2.657,1.595,3.401,4.571,2.338,6.909
			c-1.063,2.126-3.721,3.614-6.378,3.401c-2.977-0.212-5.208-1.807-6.059-4.252c-0.106-0.425-0.213-1.275-0.213-1.7
			c0-0.106-0.106-0.213-0.213-0.213h-5.74c-0.106,0-0.212,0.106-0.212,0.213c0,4.146,1.063,6.484,3.826,8.61
			c2.658,2.02,5.527,2.87,8.61,2.87c7.866,0,11.906-4.465,12.756-9.036C482.389,428.918,481.114,424.878,477.074,422.114z"/>
		<path fill="#FFFFFF" d="M226.526,401.917h-2.552h-2.764c-0.106,0-0.213,0.106-0.213,0.106l-4.783,15.626
			c-0.106,0.213-0.318,0.213-0.425,0l-4.784-15.626c0-0.106-0.105-0.106-0.212-0.106h-2.764h-2.552h-3.401
			c-0.106,0-0.213,0.106-0.213,0.213v39.862c0,0.106,0.106,0.213,0.213,0.213h5.74c0.106,0,0.213-0.106,0.213-0.213v-30.295
			c0-0.213,0.318-0.319,0.425-0.106l4.783,15.732l0.319,1.063c0,0.106,0.106,0.106,0.213,0.106h4.464
			c0.106,0,0.213-0.106,0.213-0.106l0.319-1.063l4.783-15.732c0.106-0.213,0.425-0.213,0.425,0.106v30.295
			c0,0.106,0.106,0.213,0.213,0.213h5.74c0.106,0,0.213-0.106,0.213-0.213V402.13c0-0.106-0.106-0.213-0.213-0.213H226.526
			L226.526,401.917z"/>
		<path fill="#FFFFFF" d="M388.74,401.917c-0.106,0-0.213,0.106-0.213,0.106l-4.784,15.626c-0.105,0.213-0.318,0.213-0.425,0
			l-4.783-15.626c0-0.106-0.106-0.106-0.213-0.106h-8.823c-0.105,0-0.212,0.106-0.212,0.213v39.862c0,0.106,0.106,0.213,0.212,0.213
			h5.74c0.106,0,0.213-0.106,0.213-0.213v-30.295c0-0.213,0.319-0.319,0.426-0.106l4.783,15.732l0.318,1.063
			c0,0.106,0.106,0.106,0.213,0.106h4.465c0.106,0,0.213-0.106,0.213-0.106l0.318-1.063l4.783-15.732
			c0.106-0.213,0.426-0.213,0.426,0.106v30.295c0,0.106,0.106,0.213,0.213,0.213h5.739c0.106,0,0.213-0.106,0.213-0.213V402.13
			c0-0.106-0.106-0.213-0.213-0.213H388.74L388.74,401.917z"/>
		<path fill="#FFFFFF" d="M314.329,401.917h-10.736h-5.74H287.01c-0.106,0-0.213,0.106-0.213,0.213v4.996
			c0,0.106,0.106,0.213,0.213,0.213h10.523v34.653c0,0.106,0.106,0.213,0.213,0.213h5.74c0.106,0,0.213-0.106,0.213-0.213v-34.653
			h10.523c0.106,0,0.213-0.106,0.213-0.213v-4.996C314.541,402.023,314.435,401.917,314.329,401.917z"/>
		<path fill="#FFFFFF" d="M348.345,442.205h5.209c0.106,0,0.212-0.106,0.212-0.319l-10.842-39.969c0-0.106-0.106-0.106-0.213-0.106
			h-2.02h-3.508h-2.02c-0.106,0-0.213,0.106-0.213,0.106l-10.843,39.969c0,0.106,0.106,0.319,0.213,0.319h5.208
			c0.106,0,0.213-0.106,0.213-0.106l3.189-11.692c0-0.106,0.105-0.106,0.212-0.106h11.587c0.106,0,0.213,0.106,0.213,0.106
			l3.188,11.692C348.132,442.099,348.239,442.205,348.345,442.205z M334.526,424.56l4.252-15.626c0.106-0.213,0.319-0.213,0.426,0
			l4.252,15.626c0,0.106-0.106,0.318-0.213,0.318h-8.397C334.632,424.878,334.526,424.666,334.526,424.56z"/>
		<path fill="#FFFFFF" d="M437.85,442.205h5.208c0.106,0,0.213-0.106,0.213-0.319l-10.843-39.969c0-0.106-0.105-0.106-0.212-0.106
			h-2.021h-3.508h-2.02c-0.106,0-0.213,0.106-0.213,0.106l-10.842,39.969c0,0.106,0.106,0.319,0.212,0.319h5.209
			c0.106,0,0.213-0.106,0.213-0.106l3.188-11.692c0-0.106,0.106-0.106,0.213-0.106h11.587c0.106,0,0.213,0.106,0.213,0.106
			l3.188,11.692C437.637,442.099,437.743,442.205,437.85,442.205z M424.031,424.56l4.252-15.626c0.106-0.213,0.319-0.213,0.426,0
			l4.252,15.626c0,0.106-0.106,0.318-0.213,0.318h-8.397C424.137,424.878,424.031,424.666,424.031,424.56z"/>
		<path fill="#FFFFFF" d="M253.526,436.252v-12.33c0-0.106,0.106-0.213,0.213-0.213h15.413c0.106,0,0.213-0.106,0.213-0.213V418.5
			c0-0.106-0.106-0.213-0.213-0.213h-15.413c-0.106,0-0.213-0.105-0.213-0.212v-10.524c0-0.105,0.106-0.212,0.213-0.212h17.433
			c0.106,0,0.213-0.106,0.213-0.213v-4.996c0-0.106-0.106-0.213-0.213-0.213h-17.646h-5.953c-0.106,0-0.212,0.106-0.212,0.213v5.209
			v11.055v5.422v12.756v5.421c0,0.106,0.105,0.213,0.212,0.213h5.953h18.39c0.106,0,0.213-0.106,0.213-0.213v-5.208
			c0-0.106-0.106-0.213-0.213-0.213h-18.283C253.632,436.465,253.526,436.358,253.526,436.252z"/>
		<path fill="#FFFFFF" d="M529.799,441.78l-19.984-20.623c-0.106-0.105-0.106-0.212,0-0.318l17.965-18.709
			c0.106-0.106,0-0.319-0.106-0.319h-7.335c-0.105,0-0.105,0-0.105,0.106l-15.308,15.945c-0.106,0.106-0.319,0-0.319-0.106v-15.52
			c0-0.106-0.105-0.213-0.212-0.213h-5.847c-0.106,0-0.213,0.106-0.213,0.213v39.862c0,0.106,0.106,0.213,0.213,0.213h5.74
			c0.106,0,0.213-0.106,0.213-0.213V424.56c0-0.213,0.212-0.319,0.318-0.106l17.221,17.858l0.106,0.106h7.335
			C529.799,442.205,529.906,441.886,529.799,441.78z"/>
	</g>
	<g>
		<polygon fill="#E17726" stroke="#E17726" stroke-linecap="round" stroke-linejoin="round" points="162.426,380.445 
			127.56,406.382 134.044,391.075 		"/>
		<g>
			<polygon fill="#E27625" stroke="#E27625" stroke-linecap="round" stroke-linejoin="round" points="81.851,380.445 
				116.505,406.595 110.339,391.075 			"/>
			<polygon fill="#E27625" stroke="#E27625" stroke-linecap="round" stroke-linejoin="round" points="149.883,440.504 
				140.529,454.748 160.513,460.276 166.147,440.823 			"/>
			<polygon fill="#E27625" stroke="#E27625" stroke-linecap="round" stroke-linejoin="round" points="78.237,440.823 83.87,460.276 
				103.749,454.748 94.501,440.504 			"/>
			<polygon fill="#E27625" stroke="#E27625" stroke-linecap="round" stroke-linejoin="round" points="102.686,416.48 
				97.158,424.878 116.823,425.729 116.186,404.469 			"/>
			<polygon fill="#E27625" stroke="#E27625" stroke-linecap="round" stroke-linejoin="round" points="141.698,416.48 
				127.986,404.256 127.56,425.729 147.226,424.878 			"/>
			<polygon fill="#E27625" stroke="#E27625" stroke-linecap="round" stroke-linejoin="round" points="103.749,454.748 
				115.655,449.008 105.343,440.93 			"/>
			<polygon fill="#E27625" stroke="#E27625" stroke-linecap="round" stroke-linejoin="round" points="128.73,449.008 
				140.529,454.748 138.934,440.93 			"/>
		</g>
		<g>
			<polygon fill="#D5BFB2" stroke="#D5BFB2" stroke-linecap="round" stroke-linejoin="round" points="140.529,454.748 
				128.73,449.008 129.686,456.662 129.579,459.957 			"/>
			<polygon fill="#D5BFB2" stroke="#D5BFB2" stroke-linecap="round" stroke-linejoin="round" points="103.749,454.748 
				114.804,459.957 114.698,456.662 115.655,449.008 			"/>
		</g>
		<polygon fill="#233447" stroke="#233447" stroke-linecap="round" stroke-linejoin="round" points="115.017,435.827 
			105.131,432.957 112.04,429.768 		"/>
		<polygon fill="#233447" stroke="#233447" stroke-linecap="round" stroke-linejoin="round" points="129.367,435.827 
			132.238,429.768 139.253,432.957 		"/>
		<g>
			<polygon fill="#CC6228" stroke="#CC6228" stroke-linecap="round" stroke-linejoin="round" points="103.749,454.748 
				105.449,440.504 94.501,440.823 			"/>
			<polygon fill="#CC6228" stroke="#CC6228" stroke-linecap="round" stroke-linejoin="round" points="138.934,440.504 
				140.529,454.748 149.883,440.823 			"/>
			<polygon fill="#CC6228" stroke="#CC6228" stroke-linecap="round" stroke-linejoin="round" points="147.226,424.878 
				127.56,425.729 129.367,435.827 132.238,429.768 139.253,432.957 			"/>
			<polygon fill="#CC6228" stroke="#CC6228" stroke-linecap="round" stroke-linejoin="round" points="105.131,432.957 
				112.04,429.768 115.017,435.827 116.823,425.729 97.158,424.878 			"/>
		</g>
		<g>
			<polygon fill="#E27525" stroke="#E27525" stroke-linecap="round" stroke-linejoin="round" points="97.158,424.878 
				105.343,440.93 105.131,432.957 			"/>
			<polygon fill="#E27525" stroke="#E27525" stroke-linecap="round" stroke-linejoin="round" points="139.253,432.957 
				138.934,440.93 147.226,424.878 			"/>
			<polygon fill="#E27525" stroke="#E27525" stroke-linecap="round" stroke-linejoin="round" points="116.823,425.729 
				115.017,435.827 117.249,447.839 117.781,432 			"/>
			<polygon fill="#E27525" stroke="#E27525" stroke-linecap="round" stroke-linejoin="round" points="127.56,425.729 126.604,432 
				127.029,447.839 129.367,435.827 			"/>
		</g>
		<polygon fill="#F5841F" stroke="#F5841F" stroke-linecap="round" stroke-linejoin="round" points="129.367,435.827 
			127.029,447.839 128.73,449.008 138.934,440.93 139.253,432.957 		"/>
		<polygon fill="#F5841F" stroke="#F5841F" stroke-linecap="round" stroke-linejoin="round" points="105.131,432.957 
			105.343,440.93 115.655,449.008 117.249,447.839 115.017,435.827 		"/>
		<polygon fill="#C0AC9D" stroke="#C0AC9D" stroke-linecap="round" stroke-linejoin="round" points="129.579,459.957 
			129.686,456.662 128.73,455.918 115.548,455.918 114.698,456.662 114.804,459.957 103.749,454.748 107.575,457.938 
			115.442,463.358 128.835,463.358 136.701,457.938 140.529,454.748 		"/>
		<polygon fill="#161616" stroke="#161616" stroke-linecap="round" stroke-linejoin="round" points="128.73,449.008 
			127.029,447.839 117.249,447.839 115.655,449.008 114.698,456.662 115.548,455.918 128.73,455.918 129.686,456.662 		"/>
		<g>
			<polygon fill="#763E1A" stroke="#763E1A" stroke-linecap="round" stroke-linejoin="round" points="163.914,408.083 
				166.891,393.732 162.426,380.445 128.73,405.531 141.698,416.48 159.982,421.796 164.021,417.118 162.321,415.843 
				165.084,413.291 162.958,411.591 165.722,409.465 			"/>
			<polygon fill="#763E1A" stroke="#763E1A" stroke-linecap="round" stroke-linejoin="round" points="77.492,393.732 
				80.469,408.083 78.556,409.465 81.32,411.591 79.194,413.291 82.064,415.843 80.256,417.118 84.296,421.796 102.686,416.48 
				115.655,405.531 81.851,380.445 			"/>
		</g>
		<polygon fill="#F5841F" stroke="#F5841F" stroke-linecap="round" stroke-linejoin="round" points="159.982,421.796 
			141.698,416.48 147.226,424.878 138.934,440.93 149.883,440.823 166.147,440.823 		"/>
		<polygon fill="#F5841F" stroke="#F5841F" stroke-linecap="round" stroke-linejoin="round" points="102.686,416.48 84.296,421.796 
			78.237,440.823 94.501,440.823 105.343,440.93 97.158,424.878 		"/>
		<polygon fill="#F5841F" stroke="#F5841F" stroke-linecap="round" stroke-linejoin="round" points="127.56,425.729 128.73,405.531 
			134.044,391.075 110.339,391.075 115.655,405.531 116.823,425.729 117.249,432.106 117.249,447.839 127.029,447.839 
			127.029,432.106 		"/>
	</g>
</g>
</svg>
