<?xml version="1.0" encoding="utf-8"?>
<!-- Generator: Adobe Illustrator 16.0.0, SVG Export Plug-In . SVG Version: 6.00 Build 0)  -->
<!DOCTYPE svg PUBLIC "-//W3C//DTD SVG 1.1//EN" "http://www.w3.org/Graphics/SVG/1.1/DTD/svg11.dtd">
<svg version="1.1" id="Layer_1" xmlns="http://www.w3.org/2000/svg" xmlns:xlink="http://www.w3.org/1999/xlink" x="0px" y="0px"
	 width="122.905px" height="113.556px" viewBox="0 0 122.905 113.556" enable-background="new 0 0 122.905 113.556"
	 xml:space="preserve">
<g>
	<path fill-rule="evenodd" clip-rule="evenodd" fill="#FFFFFF" d="M26.795,25.216c0,6.202-0.131,11.248,0.045,16.283
		c0.119,3.411-1.346,4.833-4.628,4.751c-2.249-0.057-4.503,0.052-6.747-0.069c-2.88-0.154-4.422-2.084-3.371-4.547
		c4.227-9.905,1.755-20.234,2.306-30.353c0.323-5.948,0.89-6.756,6.817-6.141c4.818,0.499,8.835,2.652,11.817,6.476
		C45.936,28.153,58.792,44.726,71.66,61.289c5.59,7.195,11.236,14.348,16.707,21.633c1.321,1.758,2.487,2.047,4.361,1.145
		c1.695-0.817,3.931-0.75,3.544-3.758c-0.332-2.582-0.047-5.241-0.076-7.865c-0.027-2.448,1.173-3.765,3.589-3.843
		c2.496-0.082,5.002-0.136,7.493-0.008c2.926,0.151,4.12,2.002,3.222,4.615c-3.193,9.286-1.498,18.818-1.499,28.229
		c-0.001,8.137-0.433,8.835-8.559,7.771c-6.991-0.916-12.237-4.459-16.476-9.981c-18.164-23.667-36.413-47.268-54.635-70.89
		C28.753,27.588,28.139,26.867,26.795,25.216z"/>
	<path fill-rule="evenodd" clip-rule="evenodd" fill="#FFFFFF" d="M18.253,51.492c5.367,0,10.748-0.255,16.095,0.064
		c6.867,0.41,11.432,4.837,11.825,11.666c0.424,7.347,0.416,14.728,0.328,22.091c-0.076,6.385,1.793,11.735,7.786,14.567
		c6.265,2.96,12.506,2.231,17.9-2.215c2.237-1.844,3.399-1.284,4.767,0.703c0.848,1.231,1.812,2.385,2.748,3.553
		c3.259,4.062,3.228,4.271-1.17,6.874c-14.025,8.303-31.688,5.475-40.542-6.384c-3.484-4.667-4.372-9.956-4.375-15.551
		c-0.004-6.744-0.13-13.491,0.011-20.232c0.059-2.8-0.937-3.693-3.691-3.653c-8.866,0.13-17.737-0.059-26.603,0.113
		C0.621,63.142-0.022,62.235,0,59.686c0.071-8.391-0.018-8.393,8.511-8.405c3.247-0.005,6.495,0,9.742,0
		C18.253,51.351,18.253,51.421,18.253,51.492z"/>
	<path fill-rule="evenodd" clip-rule="evenodd" fill="#FFFFFF" d="M104.465,63.017c-4.37-0.004-8.74,0.003-13.11-0.006
		c-8.574-0.018-14.401-5.548-14.607-14.14c-0.165-6.863-0.199-13.739,0.004-20.6c0.184-6.209-1.322-11.482-7.209-14.449
		c-6.236-3.144-12.497-2.682-17.887,1.724c-3.217,2.63-4.93,1.979-7.19-0.971C39.67,8.32,39.798,7.356,46.924,3.804
		c12.553-6.258,26.378-4.705,35.537,4c4.675,4.443,7.021,9.94,7.098,16.347c0.094,7.739,0.123,15.482,0.006,23.221
		c-0.043,2.862,0.845,3.988,3.87,3.93c8.484-0.16,16.975,0.066,25.459-0.082c2.896-0.051,3.927,0.806,3.977,3.801
		c0.133,8.001,0.268,7.999-7.542,7.999C111.708,63.021,108.086,63.021,104.465,63.017z"/>
	<path fill-rule="evenodd" clip-rule="evenodd" fill="#FFFFFF" d="M96.212,25.778c-0.002-5.994,0.064-11.988-0.037-17.979
		c-0.037-2.127,0.74-2.748,2.829-2.825c9.968-0.369,9.966-0.429,9.966,9.593c0,3.247,0,6.493,0,9.739
		c0,6.078-0.581,12.198,2.476,17.905c1.424,2.66,0.588,4.219-2.769,4.044c-3.238-0.168-6.494-0.118-9.736-0.013
		c-2.118,0.067-2.812-0.747-2.769-2.86C96.292,37.516,96.214,31.646,96.212,25.778z"/>
	<path fill-rule="evenodd" clip-rule="evenodd" fill="#FFFFFF" d="M26.859,88.797c0,5.733-0.067,11.468,0.032,17.199
		c0.042,2.409-0.85,3.199-3.283,3.245c-9.153,0.174-9.152,0.256-9.152-8.857c0-4.861-0.122-9.726,0.035-14.582
		c0.151-4.667-0.163-9.176-2.402-13.404c-1.384-2.616-0.637-3.978,2.48-3.892c3.113,0.086,6.236,0.124,9.346-0.019
		c2.36-0.108,2.998,0.922,2.96,3.111c-0.1,5.731-0.034,11.466-0.034,17.199C26.848,88.797,26.854,88.797,26.859,88.797z"/>
</g>
</svg>
